<?xml version="1.0" standalone="no"?>
<!DOCTYPE svg PUBLIC "-//W3C//DTD SVG 20010904//EN"
 "http://www.w3.org/TR/2001/REC-SVG-20010904/DTD/svg10.dtd">
<svg version="1.0" xmlns="http://www.w3.org/2000/svg"
 width="69.000000pt" height="117.000000pt" viewBox="0 0 69.000000 117.000000"
 preserveAspectRatio="xMidYMid meet">

<g transform="translate(0.000000,117.000000) scale(0.100000,-0.100000)"
fill="#000000" stroke="none">
<path d="M260 1134 l-25 -15 35 4 c19 3 43 0 53 -5 11 -5 17 -5 17 1 0 10 -32
31 -47 31 -4 -1 -19 -8 -33 -16z"/>
<path d="M115 1050 c-3 -5 1 -10 10 -10 9 0 13 5 10 10 -3 6 -8 10 -10 10 -2
0 -7 -4 -10 -10z"/>
<path d="M66 1019 c-21 -17 -24 -24 -15 -35 6 -8 15 -14 19 -14 4 0 41 -20 82
-45 73 -44 98 -53 98 -37 0 11 -40 33 -50 27 -5 -3 -13 3 -19 12 -6 10 -11 14
-11 9 0 -5 -8 -2 -17 7 -18 15 -22 17 -43 17 -5 0 -10 11 -10 25 0 14 -5 25
-11 25 -8 0 -8 5 1 15 18 21 7 19 -24 -6z"/>
<path d="M490 1026 c0 -8 7 -16 15 -20 9 -3 15 0 15 8 0 8 -7 16 -15 20 -9 3
-15 0 -15 -8z"/>
<path d="M564 991 c4 -5 3 -11 -1 -14 -5 -2 -2 -2 5 -1 6 2 12 -5 12 -16 0
-11 7 -20 15 -20 8 0 20 -9 27 -20 17 -27 28 -25 28 5 0 18 -11 32 -40 50 -42
26 -55 31 -46 16z"/>
<path d="M174 685 c-60 -35 -117 -70 -126 -79 -16 -14 -18 -38 -18 -221 l0
-205 68 -43 c88 -56 179 -107 192 -107 12 0 14 706 2 714 -5 3 -58 -24 -118
-59z m26 -118 c0 -7 -10 -23 -21 -36 -28 -30 -49 -13 -29 24 14 26 50 35 50
12z m-10 -342 c0 -8 0 -18 1 -22 0 -4 -4 -9 -10 -11 -13 -4 -44 44 -36 58 9
14 45 -6 45 -25z"/>
<path d="M627 573 c-4 -3 -7 -15 -7 -25 0 -10 -7 -18 -15 -18 -8 0 -19 -9 -25
-21 -11 -19 -10 -20 12 -8 37 19 58 41 58 61 0 18 -11 24 -23 11z"/>
<path d="M510 459 c0 -5 5 -7 10 -4 6 3 10 8 10 11 0 2 -4 4 -10 4 -5 0 -10
-5 -10 -11z"/>
<path d="M440 429 l-35 -31 42 22 c24 12 40 26 37 31 -7 11 -3 13 -44 -22z"/>
</g>
</svg>
